<?xml version="1.0" encoding="UTF-8"?>
<svg id="Layer_1" data-name="Layer 1" xmlns="http://www.w3.org/2000/svg" viewBox="0 0 836.42 233.77">
  <g>
    <path d="M207.78,99.12h26.83v4.53h-10.92v31.86h-4.93v-31.86h-10.97v-4.53Z"/>
    <path d="M239.59,135.51v-36.39h4.93v15.65h18.02v-15.65h4.93v36.39h-4.93v-16.16h-18.02v16.16h-4.93Z"/>
    <path d="M275.93,135.51v-36.39h22.2v4.53h-17.27v11.38h15.55v4.38h-15.55v11.53h17.27v4.58h-22.2Z"/>
    <path d="M334.27,136.11c-10.27,0-17.42-7.75-17.42-18.83s7.2-18.83,17.47-18.83,17.52,7.75,17.52,18.83-7.25,18.83-17.57,18.83ZM334.32,103.24c-7.4,0-12.28,5.59-12.28,14.04s4.88,14.09,12.28,14.09,12.33-5.69,12.33-14.09-4.93-14.04-12.33-14.04Z"/>
    <path d="M358.12,99.12h13.89c7.1,0,11.43,3.62,11.43,9.61,0,4.18-1.81,7-5.44,8.51,4.03,1.31,6.09,4.23,6.09,8.56,0,6.04-4.38,9.71-11.58,9.71h-14.4v-36.39ZM363.06,103.5v11.68h8.96c4.08,0,6.39-2.21,6.39-5.99s-2.42-5.69-6.69-5.69h-8.66ZM363.06,119.45v11.68h9.36c4.23,0,6.59-2.16,6.59-5.94s-2.42-5.74-6.59-5.74h-9.36Z"/>
    <path d="M395.22,130.93h16.01v4.58h-20.94v-36.39h4.93v31.81Z"/>
    <path d="M421.49,135.51h-4.93v-36.39h4.93v36.39Z"/>
    <path d="M454.76,133.5c-2.72,1.66-5.94,2.62-9.51,2.62-10.27,0-17.42-7.75-17.42-18.83s7.2-18.83,17.47-18.83,17.52,7.75,17.52,18.83c0,5.44-1.76,10.07-4.73,13.39l3.83,4.33-3.22,2.92-3.93-4.43ZM445.3,103.24c-7.4,0-12.28,5.59-12.28,14.04s4.88,14.09,12.28,14.09c2.32,0,4.38-.55,6.14-1.61l-4.78-5.39,3.22-2.92,4.83,5.44c1.86-2.42,2.92-5.74,2.92-9.61,0-8.46-4.93-14.04-12.33-14.04Z"/>
    <path d="M468.85,99.12h4.93v23.15c0,5.84,3.22,9.06,9.01,9.06s8.91-3.27,8.91-9.06v-23.15h4.98v23.46c0,8.36-5.34,13.54-13.89,13.54s-13.94-5.13-13.94-13.54v-23.46Z"/>
    <path d="M504.89,135.51v-36.39h22.2v4.53h-17.27v11.38h15.55v4.38h-15.55v11.53h17.27v4.58h-22.2Z"/>
    <path d="M552.91,122.52v12.99h-4.93v-36.39h14.14c7.15,0,11.73,4.68,11.73,11.68s-4.63,11.73-11.73,11.73h-9.21ZM552.91,103.55v14.55h8.15c4.88,0,7.6-2.87,7.6-7.35s-2.77-7.2-7.4-7.2h-8.36Z"/>
    <path d="M579.43,135.51v-36.39h13.74c7.8,0,12.43,4.13,12.43,10.92,0,5.03-2.52,8.66-7.05,10.12l7.4,15.35h-5.49l-6.8-14.4h-9.31v14.4h-4.93ZM584.36,116.73h8.86c4.58,0,7.2-2.47,7.2-6.64s-2.72-6.54-7.25-6.54h-8.81v13.19Z"/>
    <path d="M627.45,136.11c-10.27,0-17.42-7.75-17.42-18.83s7.2-18.83,17.47-18.83,17.52,7.75,17.52,18.83-7.25,18.83-17.57,18.83ZM627.5,103.24c-7.4,0-12.28,5.59-12.28,14.04s4.88,14.09,12.28,14.09,12.33-5.69,12.33-14.09-4.93-14.04-12.33-14.04Z"/>
    <path d="M648.08,123.58h4.78v1.81c0,3.57,1.96,6.14,5.99,6.14s5.94-2.52,5.94-6.29v-26.12h4.93v26.33c0,6.54-4.38,10.67-10.87,10.67-6.95,0-10.77-4.43-10.77-10.72v-1.81Z"/>
    <path d="M677.93,135.51v-36.39h22.2v4.53h-17.27v11.38h15.55v4.38h-15.55v11.53h17.27v4.58h-22.2Z"/>
    <path d="M705.11,117.34c0-11.23,7.1-18.83,17.52-18.83,8.21,0,14.5,4.88,15.86,12.33h-5.29c-1.36-4.73-5.44-7.6-10.72-7.6-7.35,0-12.18,5.54-12.18,14.04s4.83,14.04,12.18,14.04c5.34,0,9.56-2.87,10.92-7.35h5.23c-1.56,7.25-8.05,12.08-16.26,12.08-10.37,0-17.27-7.45-17.27-18.72Z"/>
    <path d="M739.13,99.12h26.83v4.53h-10.92v31.86h-4.93v-31.86h-10.97v-4.53Z"/>
  </g>
  <g>
    <polygon points="141.67 61.22 65.62 61.22 65.62 172.55 86.01 172.55 141.67 61.22"/>
    <polygon points="156.89 61.22 101.22 172.55 176.95 172.55 176.95 61.22 156.89 61.22"/>
  </g>
</svg>